# xmcd
#
# Track frame offsets:
#	182
#	21815
#	47932
#	69302
#	94282
#	112857
#	137890
#	165147
#	185945
#
# Disc length: 2670 seconds
#
# Revision: 0
# Processed by: cddbd v1.4PL0 Copyright (c) Steve Scherf et al.
# Submitted via: dBpowerAMP V4.0
#
DISCID=760a6c09
DTITLE=Andrae Crouch - No Time To Lose
DYEAR=1996
DGENRE=Gospel
TTITLE0=Got Me Some Angels
TTITLE1=Jesus, Come Lay Your Head On Me
TTITLE2=Right Now
TTITLE3=His Truth Still Marches On
TTITLE4=Oh, It Is Jesus
TTITLE5=No Time To Lose
TTITLE6=Livin' This Kind Of Life
TTITLE7=Somebody Somewhere Is Prayin'
TTITLE8=Always Remember
EXTD=
EXTT0=
EXTT1=
EXTT2=
EXTT3=
EXTT4=
EXTT5=
EXTT6=
EXTT7=
EXTT8=
PLAYORDER=
